#!OML:ASF E:\acrobat2\Project_11_07_03\Capture day 1\Session 1\Acrobat.ASF
:FULLY-SPECIFIED
:DEGREES
626
root -0.463896 2.41348 -14.7854 -290.613 32.9219 204.539
lowerback 39.8226 4.44267 -1.16884
upperback 14.5347 0.775236 1.70276
thorax -3.19884 -2.19342 2.25503
lowerneck -2.27198 -2.30843 -0.513037
upperneck 17.1539 -3.38457 5.9502
head 5.64892 -0.917213 1.80207
rclavicle 3.49861e-014 -3.02153e-014
rhumerus -14.2227 -9.14202 -62.2713
rradius 72.1469
rwrist -15.8866
rhand -28.6764 17.277
rfingers 7.12502
rthumb -2.03921 -12.693
lclavicle 3.49861e-014 -3.02153e-014
lhumerus -19.4467 2.15727 85.5896
lradius 71.21
lwrist -9.1933
lhand -26.2082 -8.99236
lfingers 7.12502
lthumb 0.344668 20.9871
rfemur -111.787 -10.66 40.7186
rtibia 106.032
rfoot 4.24407 7.00656
rtoes -23.548
lfemur -81.7594 10.456 -15.1366
ltibia 125.783
lfoot 3.91092 -10.5725
ltoes 18.6761
627
root -0.574406 2.42547 -14.8901 -291.17 31.2965 204.211
lowerback 39.3255 4.4392 -1.38759
upperback 14.6666 0.774022 1.73739
thorax -2.90896 -2.17704 2.39415
lowerneck -2.5139 -2.25658 -0.864699
upperneck 17.7164 -3.31036 6.1463
head 5.8722 -0.849298 1.93124
rclavicle -4.45278e-014 1.93219e-013
rhumerus -14.3825 -9.1572 -62.2639
rradius 71.7003
rwrist -15.965
rhand -28.5404 16.2598
rfingers 7.12502
rthumb -1.90784 -13.7115
lclavicle -4.45278e-014 1.93219e-013
lhumerus -19.306 1.80963 85.8044
lradius 72.4074
lwrist -9.26482
lhand -26.6212 -8.85468
lfingers 7.12502
lthumb -0.0541833 21.1251
rfemur -112.35 -10.6068 40.8081
rtibia 106.918
rfoot 4.90293 7.341
rtoes -23.0508
lfemur -82.6381 11.0719 -15.2306
ltibia 126.753
lfoot 3.96841 -11.1784
ltoes 16.6465
628
root -0.687941 2.43889 -14.9921 -291.547 29.6302 203.998
lowerback 38.7273 4.40434 -1.74802
upperback 14.7615 0.717804 1.77872
thorax -2.62695 -2.17623 2.63328
lowerneck -2.75013 -2.15953 -1.24522
upperneck 18.3069 -3.16556 6.32912
head 6.10132 -0.748503 2.06779
rclavicle 4.77083e-014 -5.64548e-014
rhumerus -14.4701 -9.04186 -62.287
rradius 71.2123
rwrist -16.2419
rhand -28.2694 14.8588
rfingers 7.12502
rthumb -1.6461 -15.1146
lclavicle 4.77083e-014 -5.64548e-014
lhumerus -19.2571 1.62269 85.9893
lradius 73.5891
lwrist -9.35348
lhand -27.0053 -8.83673
lfingers 7.12502
lthumb -0.425176 21.1426
rfemur -112.977 -10.6086 40.8203
rtibia 107.8
rfoot 5.62122 7.68176
rtoes -22.1281
lfemur -83.6002 11.6359 -15.4315
ltibia 127.708
lfoot 4.0288 -11.7205
ltoes 15.2006
629
root -0.803887 2.45446 -15.0914 -291.741 27.8929 203.922
lowerback 38.0473 4.35026 -2.32273
upperback 14.8007 0.604319 1.85167
thorax -2.37793 -2.1943 3.03768
lowerneck -2.88613 -2.03033 -1.65241
upperneck 18.8232 -2.95268 6.41871
head 6.28585 -0.629775 2.18525
rclavicle -2.22639e-014 5.48646e-014
rhumerus -14.5036 -8.73228 -62.2922
rradius 70.6957
rwrist -16.7161
rhand -27.976 13.209
rfingers 7.12502
rthumb -1.36277 -16.7664
lclavicle -2.22639e-014 5.48646e-014
lhumerus -19.3416 1.68042 86.2023
lradius 74.7464
lwrist -9.5113
lhand -27.3227 -8.92122
lfingers 7.12502
lthumb -0.731731 21.0573
rfemur -113.694 -10.6813 40.7174
rtibia 108.694
rfoot 6.40083 7.99722
rtoes -20.6908
lfemur -84.6471 12.0904 -15.7746
ltibia 128.642
lfoot 4.09211 -12.1563
ltoes 14.3309
630
root -0.921231 2.47263 -15.1896 -291.775 26.092 203.974
lowerback 37.2666 4.26852 -3.03468
upperback 14.8095 0.443431 1.92986
thorax -2.12059 -2.22948 3.53521
lowerneck -2.89222 -1.89576 -2.02381
upperneck 19.1945 -2.70882 6.38333
head 6.39798 -0.51365 2.2586
rclavicle 6.04305e-014 -1.27222e-014
rhumerus -14.5194 -8.30473 -62.2917
rradius 70.1661
rwrist -17.3294
rhand -27.7528 11.4457
rfingers 7.12502
rthumb -1.14714 -18.531
lclavicle 6.04305e-014 -1.27222e-014
lhumerus -19.4872 1.86667 86.4156
lradius 75.871
lwrist -9.70655
lhand -27.5794 -9.02229
lfingers 7.12502
lthumb -0.979727 20.9552
rfemur -114.51 -10.8208 40.5031
rtibia 109.608
rfoot 7.2072 8.25017
rtoes -18.8546
lfemur -85.7846 12.4302 -16.245
ltibia 129.559
lfoot 4.12597 -12.5086
ltoes 13.5716
631
root -1.03954 2.49264 -15.2881 -291.698 24.2954 204.105
lowerback 36.2716 4.13949 -3.76592
upperback 14.9226 0.253098 1.99975
thorax -1.81475 -2.27891 4.04604
lowerneck -2.76752 -1.77644 -2.26785
upperneck 19.3581 -2.46714 6.18004
head 6.41776 -0.416287 2.25382
rclavicle -4.13472e-014 -9.54166e-015
rhumerus -14.517 -7.86174 -62.318
rradius 69.6373
rwrist -17.9927
rhand -27.576 9.68687
rfingers 7.12502
rthumb -0.976358 -20.2906
lclavicle -4.13472e-014 -9.54166e-015
lhumerus -19.6546 2.1505 86.6154
lradius 76.9399
lwrist -9.93802
lhand -27.8111 -9.12747
lfingers 7.12502
lthumb -1.20345 20.8489
rfemur -115.408 -11.0029 40.2545
rtibia 110.535
rfoot 7.9613 8.42561
rtoes -17.039
lfemur -87.014 12.7207 -16.7562
ltibia 130.465
lfoot 4.1902 -12.8026
ltoes 12.9375
632
root -1.15931 2.51213 -15.3865 -291.564 22.5887 204.26
lowerback 35.3019 3.97028 -4.38941
upperback 14.9463 0.0491585 2.08121
thorax -1.45157 -2.3363 4.51503
lowerneck -2.62007 -1.66764 -2.44338
upperneck 19.4357 -2.23928 5.93649
head 6.40594 -0.328347 2.22212
rclavicle 5.725e-014 -1.04958e-013
rhumerus -14.489 -7.47499 -62.3585
rradius 69.1039
rwrist -18.6477
rhand -27.4412 8.08
rfingers 7.12502
rthumb -0.846169 -21.8981
lclavicle 5.725e-014 -1.04958e-013
lhumerus -19.7995 2.44812 86.809
lradius 77.9519
lwrist -10.1353
lhand -28.0217 -9.13985
lfingers 7.12502
lthumb -1.40688 20.8353
rfemur -116.324 -11.2149 40.0649
rtibia 111.455
rfoot 8.60269 8.53861
rtoes -15.4754
lfemur -88.305 13.0307 -17.1993
ltibia 131.35
lfoot 4.3594 -13.0815
ltoes 12.4961
633
root -1.28099 2.52954 -15.4836 -291.387 20.9907 204.423
lowerback 34.2738 3.7622 -4.8478
upperback 14.9904 -0.148321 2.16661
thorax -1.03137 -2.3934 4.89728
lowerneck -2.49351 -1.58341 -2.54279
upperneck 19.4632 -2.05365 5.69689
head 6.38344 -0.256836 2.17511
rclavicle 5.08889e-014 -3.10104e-014
rhumerus -14.4381 -7.21097 -62.4089
rradius 68.5557
rwrist -19.2386
rhand -27.3454 6.72217
rfingers 7.12502
rthumb -0.753684 -23.2562
lclavicle 5.08889e-014 -3.10104e-014
lhumerus -19.8788 2.68787 86.9891
lradius 78.8828
lwrist -10.2359
lhand -28.2013 -8.98786
lfingers 7.12502
lthumb -1.58032 20.986
rfemur -117.231 -11.4544 39.9594
rtibia 112.354
rfoot 9.14301 8.599
rtoes -14.0798
lfemur -89.641 13.369 -17.5437
ltibia 132.203
lfoot 4.68776 -13.3422
ltoes 12.385
634
root -1.40421 2.54404 -15.5776 -291.189 19.4861 204.597
lowerback 33.2365 3.53001 -5.14636
upperback 15.0585 -0.336199 2.24892
thorax -0.568843 -2.4507 5.18641
lowerneck -2.45784 -1.52273 -2.57295
upperneck 19.4972 -1.91381 5.48766
head 6.38086 -0.199423 2.12302
rclavicle 5.08889e-014 -7.87187e-014
rhumerus -14.3526 -7.09573 -62.4829
rradius 67.983
rwrist -19.6927
rhand -27.2558 5.66727
rfingers 7.12502
rthumb -0.66712 -24.3114
lclavicle 5.08889e-014 -7.87187e-014
lhumerus -19.8857 2.83529 87.144
lradius 79.7459
lwrist -10.1982
lhand -28.3747 -8.65178
lfingers 7.12502
lthumb -1.74783 21.3208
rfemur -118.088 -11.7368 39.9274
rtibia 113.231
rfoot 9.62685 8.59301
rtoes -12.6867
lfemur -90.9663 13.7251 -17.789
ltibia 133.007
lfoot 5.24505 -13.5455
ltoes 12.8592
